<svg width="720" height="720" viewBox="0 0 720 720" fill="none" xmlns="http://www.w3.org/2000/svg">
<rect width="720" height="720" rx="130" fill="#FF4F1F"/>
<path d="M406.3 408.2C456.3 408.2 496.9 367.6 496.9 317.6C496.9 267.6 456.3 227 406.3 227H269.7C219.7 227 179.1 267.6 179.1 317.6C179.1 367.6 219.7 408.2 269.7 408.2H406.3ZM269.7 378.3C236.2 378.3 209 351 209 317.6C209 284.1 236.2 256.9 269.7 256.9H406.3C439.8 256.9 467 284.2 467 317.6C467 351.1 439.8 378.3 406.3 378.3H269.7ZM349.1 586.7C315.6 586.7 288.4 559.5 288.4 526C288.4 492.5 315.6 465.3 349.1 465.3H406.3C439.8 465.3 467 492.5 467 526C467 559.5 439.8 586.7 406.3 586.7H349.1ZM406.3 616.5C456.3 616.5 496.9 575.9 496.9 525.9C496.9 475.9 456.3 435.3 406.3 435.3H349.1C299.1 435.3 258.5 475.9 258.5 525.9C258.5 575.9 299.1 616.5 349.1 616.5H406.3ZM445.3 130.6C458.8 130.6 469.7 141.6 469.7 155C469.7 168.4 458.7 179.4 445.3 179.4C431.8 179.4 420.9 168.4 420.9 155C420.9 141.6 431.9 130.6 445.3 130.6ZM445.3 103.5C416.8 103.5 393.7 126.6 393.7 155.1C393.7 183.6 416.8 206.7 445.3 206.7C473.8 206.7 496.9 183.6 496.9 155.1C496.9 126.6 473.8 103.5 445.3 103.5Z" fill="white"/>
</svg>
